{
  "accessors": [
    {
      "bufferView": 2,
      "componentType": 5126,
      "count": 9948,
      "max": [
        78.94380187988281,
        -21.62810707092285,
        -4.8398942947387695
      ],
      "min": [
        41.1112174987793,
        -28.913007736206055,
        -32.04826354980469
      ],
      "type": "VEC3"
    },
    {
      "bufferView": 2,
      "byteOffset": 119376,
      "componentType": 5126,
      "count": 9948,
      "max": [
        0.9858085513114929,
        0.9680019617080688,
        0.9689499139785767
      ],
      "min": [
        -0.9981106519699097,
        -0.9006496667861938,
        -0.9094940423965454
      ],
      "type": "VEC3"
    },
    {
      "bufferView": 1,
      "componentType": 5126,
      "count": 9948,
      "max": [
        0.99853515625,
        0.99853515625
      ],
      "min": [
        0.0,
        0.0
      ],
      "type": "VEC2"
    },
    {
      "bufferView": 0,
      "componentType": 5125,
      "count": 34080,
      "type": "SCALAR"
    },
    {
      "bufferView": 2,
      "byteOffset": 238752,
      "componentType": 5126,
      "count": 2260,
      "max": [
        76.01651763916016,
        -3.7744383811950684,
        -1.572009801864624
      ],
      "min": [
        8.994757652282715,
        -19.522844314575195,
        -35.85558319091797
      ],
      "type": "VEC3"
    },
    {
      "bufferView": 2,
      "byteOffset": 265872,
      "componentType": 5126,
      "count": 2260,
      "max": [
        0.999999463558197,
        0.999999463558197,
        0.9991719126701355
      ],
      "min": [
        -0.999999463558197,
        -0.999999463558197,
        -0.9991719126701355
      ],
      "type": "VEC3"
    },
    {
      "bufferView": 1,
      "byteOffset": 79584,
      "componentType": 5126,
      "count": 2260,
      "max": [
        0.2844708263874054,
        0.99853515625
      ],
      "min": [
        0.0,
        0.0
      ],
      "type": "VEC2"
    },
    {
      "bufferView": 0,
      "byteOffset": 136320,
      "componentType": 5125,
      "count": 10608,
      "type": "SCALAR"
    },
    {
      "bufferView": 2,
      "byteOffset": 292992,
      "componentType": 5126,
      "count": 2957,
      "max": [
        78.69606018066406,
        -15.780998229980469,
        -2.7125086784362793
      ],
      "min": [
        1.1883234977722168,
        -28.768354415893555,
        -34.70832061767578
      ],
      "type": "VEC3"
    },
    {
      "bufferView": 2,
      "byteOffset": 328476,
      "componentType": 5126,
      "count": 2957,
      "max": [
        0.6363996863365173,
        -0.2543136775493622,
        0.9671074748039246
      ],
      "min": [
        -0.8729081153869629,
        -0.9282066822052002,
        -0.9671074748039246
      ],
      "type": "VEC3"
    },
    {
      "bufferView": 1,
      "byteOffset": 97664,
      "componentType": 5126,
      "count": 2957,
      "max": [
        1.0,
        1.0
      ],
      "min": [
        0.0,
        0.0
      ],
      "type": "VEC2"
    },
    {
      "bufferView": 0,
      "byteOffset": 178752,
      "componentType": 5125,
      "count": 12324,
      "type": "SCALAR"
    },
    {
      "bufferView": 2,
      "byteOffset": 363960,
      "componentType": 5126,
      "count": 19158,
      "max": [
        94.55106353759766,
        -7.117040634155273,
        -0.14396940171718597
      ],
      "min": [
        0.8140071034431458,
        -30.575780868530273,
        -37.27451705932617
      ],
      "type": "VEC3"
    },
    {
      "bufferView": 2,
      "byteOffset": 593856,
      "componentType": 5126,
      "count": 19158,
      "max": [
        0.9996897578239441,
        0.9999898672103882,
        0.9999992847442627
      ],
      "min": [
        -0.9999666213989258,
        -1.0,
        -0.9999992847442627
      ],
      "type": "VEC3"
    },
    {
      "bufferView": 1,
      "byteOffset": 121320,
      "componentType": 5126,
      "count": 19158,
      "max": [
        1.0,
        1.0
      ],
      "min": [
        0.0,
        0.0
      ],
      "type": "VEC2"
    },
    {
      "bufferView": 0,
      "byteOffset": 228048,
      "componentType": 5125,
      "count": 83649,
      "type": "SCALAR"
    },
    {
      "bufferView": 2,
      "byteOffset": 823752,
      "componentType": 5126,
      "count": 65532,
      "max": [
        22.579347610473633,
        -5.938253879547119,
        -1.238077163696289
      ],
      "min": [
        11.158573150634766,
        -17.359027862548828,
        -36.59772491455078
      ],
      "type": "VEC3"
    },
    {
      "bufferView": 2,
      "byteOffset": 1610136,
      "componentType": 5126,
      "count": 65532,
      "max": [
        1.0,
        1.0,
        1.0
      ],
      "min": [
        -1.0,
        -1.0,
        -1.0
      ],
      "type": "VEC3"
    },
    {
      "bufferView": 1,
      "byteOffset": 274584,
      "componentType": 5126,
      "count": 65532,
      "max": [
        1.0,
        1.0
      ],
      "min": [
        0.0,
        0.0
      ],
      "type": "VEC2"
    },
    {
      "bufferView": 0,
      "byteOffset": 562644,
      "componentType": 5125,
      "count": 351867,
      "type": "SCALAR"
    },
    {
      "bufferView": 2,
      "byteOffset": 2396520,
      "componentType": 5126,
      "count": 65532,
      "max": [
        73.85269927978516,
        -5.938253879547119,
        -0.8298690319061279
      ],
      "min": [
        11.655942916870117,
        -17.359027862548828,
        -35.592620849609375
      ],
      "type": "VEC3"
    },
    {
      "bufferView": 2,
      "byteOffset": 3182904,
      "componentType": 5126,
      "count": 65532,
      "max": [
        1.0,
        1.0,
        1.0
      ],
      "min": [
        -1.0,
        -1.0,
        -1.0
      ],
      "type": "VEC3"
    },
    {
      "bufferView": 1,
      "byteOffset": 798840,
      "componentType": 5126,
      "count": 65532,
      "max": [
        1.0,
        1.0
      ],
      "min": [
        0.0,
        0.0
      ],
      "type": "VEC2"
    },
    {
      "bufferView": 0,
      "byteOffset": 1970112,
      "componentType": 5125,
      "count": 343410,
      "type": "SCALAR"
    },
    {
      "bufferView": 2,
      "byteOffset": 3969288,
      "componentType": 5126,
      "count": 65532,
      "max": [
        73.85269927978516,
        -5.938253879547119,
        -0.8298615217208862
      ],
      "min": [
        62.43192672729492,
        -17.359027862548828,
        -36.59773254394531
      ],
      "type": "VEC3"
    },
    {
      "bufferView": 2,
      "byteOffset": 4755672,
      "componentType": 5126,
      "count": 65532,
      "max": [
        1.0,
        1.0,
        1.0
      ],
      "min": [
        -1.0,
        -1.0,
        -1.0
      ],
      "type": "VEC3"
    },
    {
      "bufferView": 1,
      "byteOffset": 1323096,
      "componentType": 5126,
      "count": 65532,
      "max": [
        1.0,
        1.0
      ],
      "min": [
        0.0,
        0.0
      ],
      "type": "VEC2"
    },
    {
      "bufferView": 0,
      "byteOffset": 3343752,
      "componentType": 5125,
      "count": 341658,
      "type": "SCALAR"
    },
    {
      "bufferView": 2,
      "byteOffset": 5542056,
      "componentType": 5126,
      "count": 30242,
      "max": [
        73.01209259033203,
        -5.938253879547119,
        -0.8298615217208862
      ],
      "min": [
        11.158573150634766,
        -17.359027862548828,
        -36.59773254394531
      ],
      "type": "VEC3"
    },
    {
      "bufferView": 2,
      "byteOffset": 5904960,
      "componentType": 5126,
      "count": 30242,
      "max": [
        1.0,
        1.0,
        1.0
      ],
      "min": [
        -1.0,
        -1.0,
        -1.0
      ],
      "type": "VEC3"
    },
    {
      "bufferView": 1,
      "byteOffset": 1847352,
      "componentType": 5126,
      "count": 30242,
      "max": [
        1.0,
        1.0
      ],
      "min": [
        0.0,
        0.0
      ],
      "type": "VEC2"
    },
    {
      "bufferView": 0,
      "byteOffset": 4710384,
      "componentType": 5125,
      "count": 150033,
      "type": "SCALAR"
    },
    {
      "bufferView": 2,
      "byteOffset": 6267864,
      "componentType": 5126,
      "count": 6251,
      "max": [
        89.80142211914063,
        -10.1387939453125,
        -8.220383644104004
      ],
      "min": [
        1.3297525644302368,
        -19.943103790283203,
        -29.177040100097656
      ],
      "type": "VEC3"
    },
    {
      "bufferView": 2,
      "byteOffset": 6342876,
      "componentType": 5126,
      "count": 6251,
      "max": [
        1.0,
        1.0,
        1.0
      ],
      "min": [
        -1.0,
        -1.0,
        -1.0
      ],
      "type": "VEC3"
    },
    {
      "bufferView": 1,
      "byteOffset": 2089288,
      "componentType": 5126,
      "count": 6251,
      "max": [
        0.99853515625,
        0.99853515625
      ],
      "min": [
        0.0,
        0.0
      ],
      "type": "VEC2"
    },
    {
      "bufferView": 0,
      "byteOffset": 5310516,
      "componentType": 5125,
      "count": 26505,
      "type": "SCALAR"
    },
    {
      "bufferView": 2,
      "byteOffset": 6417888,
      "componentType": 5126,
      "count": 34,
      "max": [
        39.058677673339844,
        -9.460662841796875,
        -1.3587636947631836
      ],
      "min": [
        37.62069320678711,
        -18.845869064331055,
        -3.5179078578948975
      ],
      "type": "VEC3"
    },
    {
      "bufferView": 2,
      "byteOffset": 6418296,
      "componentType": 5126,
      "count": 34,
      "max": [
        0.7013292908668518,
        0.2333502173423767,
        0.7063018083572388
      ],
      "min": [
        -0.6851523518562317,
        -0.09630749374628067,
        -0.6900101900100708
      ],
      "type": "VEC3"
    },
    {
      "bufferView": 1,
      "byteOffset": 2139296,
      "componentType": 5126,
      "count": 34,
      "max": [
        1.0,
        1.0
      ],
      "min": [
        0.0,
        0.0
      ],
      "type": "VEC2"
    },
    {
      "bufferView": 0,
      "byteOffset": 5416536,
      "componentType": 5125,
      "count": 120,
      "type": "SCALAR"
    },
    {
      "bufferView": 2,
      "byteOffset": 6418704,
      "componentType": 5126,
      "count": 2919,
      "max": [
        64.4278793334961,
        -9.460662841796875,
        -0.6939131021499634
      ],
      "min": [
        1.5458978414535522,
        -28.46343421936035,
        -36.73197555541992
      ],
      "type": "VEC3"
    },
    {
      "bufferView": 2,
      "byteOffset": 6453732,
      "componentType": 5126,
      "count": 2919,
      "max": [
        1.0,
        1.0,
        1.0
      ],
      "min": [
        -1.0,
        -1.0,
        -1.0
      ],
      "type": "VEC3"
    },
    {
      "bufferView": 1,
      "byteOffset": 2139568,
      "componentType": 5126,
      "count": 2919,
      "max": [
        1.0,
        1.0
      ],
      "min": [
        0.0,
        0.0
      ],
      "type": "VEC2"
    },
    {
      "bufferView": 0,
      "byteOffset": 5417016,
      "componentType": 5125,
      "count": 10377,
      "type": "SCALAR"
    },
    {
      "bufferView": 2,
      "byteOffset": 6488760,
      "componentType": 5126,
      "count": 6,
      "max": [
        3.610036849975586,
        -12.435284614562988,
        -21.274690628051758
      ],
      "min": [
        3.377579689025879,
        -12.911294937133789,
        -21.327381134033203
      ],
      "type": "VEC3"
    },
    {
      "bufferView": 2,
      "byteOffset": 6488832,
      "componentType": 5126,
      "count": 6,
      "max": [
        0.0,
        0.3008074462413788,
        0.9959865808486938
      ],
      "min": [
        0.0,
        -0.08950281143188477,
        0.95368492603302
      ],
      "type": "VEC3"
    },
    {
      "bufferView": 1,
      "byteOffset": 2162920,
      "componentType": 5126,
      "count": 6,
      "max": [
        1.0,
        1.0
      ],
      "min": [
        0.0,
        0.0
      ],
      "type": "VEC2"
    },
    {
      "bufferView": 0,
      "byteOffset": 5458524,
      "componentType": 5125,
      "count": 12,
      "type": "SCALAR"
    }
  ],
  "asset": {
    "extras": {
      "author": "Emre Çınar (https://sketchfab.com/emrecnarr)",
      "license": "CC-BY-4.0 (http://creativecommons.org/licenses/by/4.0/)",
      "source": "https://sketchfab.com/3d-models/mercedes-benz-718836a66b8d47d4a614fa6e6b2b030f",
      "title": "Mercedes-Benz"
    },
    "generator": "Sketchfab-14.81.0",
    "version": "2.0"
  },
  "bufferViews": [
    {
      "buffer": 0,
      "byteLength": 5458572,
      "name": "floatBufferViews",
      "target": 34963
    },
    {
      "buffer": 0,
      "byteLength": 2162968,
      "byteOffset": 5458572,
      "byteStride": 8,
      "name": "floatBufferViews",
      "target": 34962
    },
    {
      "buffer": 0,
      "byteLength": 6488904,
      "byteOffset": 7621540,
      "byteStride": 12,
      "name": "floatBufferViews",
      "target": 34962
    }
  ],
  "buffers": [
    {
      "byteLength": 14110444,
      "uri": "scene.bin"
    }
  ],
  "extensionsUsed": [
    "KHR_materials_specular",
    "KHR_materials_transmission",
    "KHR_materials_clearcoat"
  ],
  "materials": [
    {
      "doubleSided": true,
      "name": "Ancient_White_Matte_Paint",
      "pbrMetallicRoughness": {
        "roughnessFactor": 0.0
      }
    },
    {
      "doubleSided": true,
      "extensions": {
        "KHR_materials_specular": {
          "specularColorFactor": [
            1.0,
            1.0,
            1.0
          ],
          "specularFactor": 0.4434299228340505
        }
      },
      "name": "Black_Matte_Paint",
      "pbrMetallicRoughness": {
        "baseColorFactor": [
          0.0,
          0.0,
          0.0,
          1.0
        ],
        "metallicFactor": 0.0,
        "roughnessFactor": 0.5592397995879607
      }
    },
    {
      "alphaMode": "BLEND",
      "doubleSided": true,
      "extensions": {
        "KHR_materials_transmission": {
          "transmissionFactor": 0.5321890504809158
        }
      },
      "name": "Clear_Glass",
      "pbrMetallicRoughness": {
        "baseColorFactor": [
          1.0,
          1.0,
          1.0,
          0.4678109495190842
        ],
        "roughnessFactor": 0.0
      }
    },
    {
      "doubleSided": true,
      "extensions": {
        "KHR_materials_clearcoat": {
          "clearcoatFactor": 0.693335446355646,
          "clearcoatRoughnessFactor": 0.03504772585973595
        },
        "KHR_materials_specular": {
          "specularColorFactor": [
            1.0,
            1.0,
            1.0
          ],
          "specularFactor": 0.9493362265484999
        }
      },
      "name": "Matte_Aluminum",
      "pbrMetallicRoughness": {
        "baseColorFactor": [
          0.5904156236851367,
          0.0,
          0.0,
          1.0
        ],
        "metallicFactor": 0.4678109495190842,
        "roughnessFactor": 0.01676195584596067
      }
    },
    {
      "doubleSided": true,
      "extensions": {
        "KHR_materials_specular": {
          "specularColorFactor": [
            1.0,
            1.0,
            1.0
          ],
          "specularFactor": 1.0
        }
      },
      "name": "Matte_Silver",
      "pbrMetallicRoughness": {
        "baseColorFactor": [
          0.44672920812723993,
          0.4379836074906885,
          0.4379836074906885,
          1.0
        ],
        "roughnessFactor": 0.041142982530994375
      }
    },
    {
      "doubleSided": true,
      "extensions": {
        "KHR_materials_specular": {
          "specularColorFactor": [
            1.0,
            1.0,
            1.0
          ],
          "specularFactor": 0.9615267398910168
        }
      },
      "name": "Polished_Chrome",
      "pbrMetallicRoughness": {
        "baseColorFactor": [
          0.42197790782417816,
          0.42197790782417816,
          0.42197790782417816,
          1.0
        ],
        "roughnessFactor": 0.2544769660250393
      }
    },
    {
      "doubleSided": true,
      "name": "diffuse_0",
      "pbrMetallicRoughness": {
        "baseColorFactor": [
          0.0,
          0.0,
          0.0,
          1.0
        ],
        "metallicFactor": 0.0,
        "roughnessFactor": 0.6
      }
    },
    {
      "doubleSided": true,
      "name": "diffuse_Black",
      "pbrMetallicRoughness": {
        "baseColorFactor": [
          0.23509307101688112,
          0.230601078969957,
          0.230601078969957,
          1.0
        ],
        "roughnessFactor": 0.28495324938133143
      }
    },
    {
      "doubleSided": true,
      "name": "diffuse_White",
      "pbrMetallicRoughness": {
        "metallicFactor": 0.0,
        "roughnessFactor": 0.6
      }
    }
  ],
  "meshes": [
    {
      "name": "Object_0",
      "primitives": [
        {
          "attributes": {
            "NORMAL": 1,
            "POSITION": 0,
            "TEXCOORD_0": 2
          },
          "indices": 3,
          "material": 0,
          "mode": 4
        }
      ]
    },
    {
      "name": "Object_1",
      "primitives": [
        {
          "attributes": {
            "NORMAL": 5,
            "POSITION": 4,
            "TEXCOORD_0": 6
          },
          "indices": 7,
          "material": 1,
          "mode": 4
        }
      ]
    },
    {
      "name": "Object_2",
      "primitives": [
        {
          "attributes": {
            "NORMAL": 9,
            "POSITION": 8,
            "TEXCOORD_0": 10
          },
          "indices": 11,
          "material": 2,
          "mode": 4
        }
      ]
    },
    {
      "name": "Object_3",
      "primitives": [
        {
          "attributes": {
            "NORMAL": 13,
            "POSITION": 12,
            "TEXCOORD_0": 14
          },
          "indices": 15,
          "material": 3,
          "mode": 4
        }
      ]
    },
    {
      "name": "Object_4",
      "primitives": [
        {
          "attributes": {
            "NORMAL": 17,
            "POSITION": 16,
            "TEXCOORD_0": 18
          },
          "indices": 19,
          "material": 4,
          "mode": 4
        }
      ]
    },
    {
      "name": "Object_5",
      "primitives": [
        {
          "attributes": {
            "NORMAL": 21,
            "POSITION": 20,
            "TEXCOORD_0": 22
          },
          "indices": 23,
          "material": 4,
          "mode": 4
        }
      ]
    },
    {
      "name": "Object_6",
      "primitives": [
        {
          "attributes": {
            "NORMAL": 25,
            "POSITION": 24,
            "TEXCOORD_0": 26
          },
          "indices": 27,
          "material": 4,
          "mode": 4
        }
      ]
    },
    {
      "name": "Object_7",
      "primitives": [
        {
          "attributes": {
            "NORMAL": 29,
            "POSITION": 28,
            "TEXCOORD_0": 30
          },
          "indices": 31,
          "material": 4,
          "mode": 4
        }
      ]
    },
    {
      "name": "Object_8",
      "primitives": [
        {
          "attributes": {
            "NORMAL": 33,
            "POSITION": 32,
            "TEXCOORD_0": 34
          },
          "indices": 35,
          "material": 5,
          "mode": 4
        }
      ]
    },
    {
      "name": "Object_9",
      "primitives": [
        {
          "attributes": {
            "NORMAL": 37,
            "POSITION": 36,
            "TEXCOORD_0": 38
          },
          "indices": 39,
          "material": 6,
          "mode": 4
        }
      ]
    },
    {
      "name": "Object_10",
      "primitives": [
        {
          "attributes": {
            "NORMAL": 41,
            "POSITION": 40,
            "TEXCOORD_0": 42
          },
          "indices": 43,
          "material": 7,
          "mode": 4
        }
      ]
    },
    {
      "name": "Object_11",
      "primitives": [
        {
          "attributes": {
            "NORMAL": 45,
            "POSITION": 44,
            "TEXCOORD_0": 46
          },
          "indices": 47,
          "material": 8,
          "mode": 4
        }
      ]
    }
  ],
  "nodes": [
    {
      "children": [
        1
      ],
      "matrix": [
        1.0,
        0.0,
        0.0,
        0.0,
        0.0,
        -1.0,
        0.0,
        0.0,
        0.0,
        0.0,
        -1.0,
        0.0,
        0.0,
        0.0,
        0.0,
        1.0
      ],
      "name": "Sketchfab_model"
    },
    {
      "children": [
        2,
        3,
        4,
        5,
        6,
        7,
        8,
        9,
        10,
        11,
        12,
        13
      ],
      "name": "300.obj.cleaner.materialmerger.gles"
    },
    {
      "mesh": 0,
      "name": "Object_2"
    },
    {
      "mesh": 1,
      "name": "Object_3"
    },
    {
      "mesh": 2,
      "name": "Object_4"
    },
    {
      "mesh": 3,
      "name": "Object_5"
    },
    {
      "mesh": 4,
      "name": "Object_6"
    },
    {
      "mesh": 5,
      "name": "Object_7"
    },
    {
      "mesh": 6,
      "name": "Object_8"
    },
    {
      "mesh": 7,
      "name": "Object_9"
    },
    {
      "mesh": 8,
      "name": "Object_10"
    },
    {
      "mesh": 9,
      "name": "Object_11"
    },
    {
      "mesh": 10,
      "name": "Object_12"
    },
    {
      "mesh": 11,
      "name": "Object_13"
    }
  ],
  "scene": 0,
  "scenes": [
    {
      "name": "Sketchfab_Scene",
      "nodes": [
        0
      ]
    }
  ]
}
